<?xml version="1.0" encoding="UTF-8"?>
<svg version="1.1" xmlns="http://www.w3.org/2000/svg" width="516" height="113">
<path d="M0 0 C170.28 0 340.56 0 516 0 C516 37.29 516 74.58 516 113 C345.72 113 175.44 113 0 113 C0 75.71 0 38.42 0 0 Z " fill="#181C1D" transform="translate(0,0)"/>
<path d="M0 0 C6.93 0 13.86 0 21 0 C21 1.98 21 3.96 21 6 C22.65 6 24.3 6 26 6 C26 8.97 26 11.94 26 15 C26.66 15 27.32 15 28 15 C28 16.98 28 18.96 28 21 C29.65 21 31.3 21 33 21 C33 23.97 33 26.94 33 30 C36.96 29.505 36.96 29.505 41 29 C40.94779297 27.75283203 40.94779297 27.75283203 40.89453125 26.48046875 C40.86746094 25.39378906 40.84039062 24.30710937 40.8125 23.1875 C40.77769531 22.10855469 40.74289063 21.02960937 40.70703125 19.91796875 C41 17 41 17 42.26171875 15.11328125 C44 14 44 14 48 14 C47.98839844 13.15695313 47.97679687 12.31390625 47.96484375 11.4453125 C47.95582031 10.34960938 47.94679687 9.25390625 47.9375 8.125 C47.92589844 7.03445312 47.91429687 5.94390625 47.90234375 4.8203125 C48 2 48 2 49 0 C55.93 0 62.86 0 70 0 C70 1.98 70 3.96 70 6 C71.65 6 73.3 6 75 6 C75 31.74 75 57.48 75 84 C69.39 84 63.78 84 58 84 C58 81.03 58 78.06 58 75 C57.01 74.67 56.02 74.34 55 74 C54.77392944 62.31968789 55.44263184 50.66322528 56 39 C55.34 39 54.68 39 54 39 C54 43.95 54 48.9 54 54 C51.69 54 49.38 54 47 54 C47 58.95 47 63.9 47 69 C41.39 69 35.78 69 30 69 C30 66.03 30 63.06 30 60 C29.34 60 28.68 60 28 60 C28 58.02 28 56.04 28 54 C26.35 54 24.7 54 23 54 C23 51.03 23 48.06 23 45 C22.34 45 21.68 45 21 45 C21 43.02 21 41.04 21 39 C20.34 39 19.68 39 19 39 C19 53.85 19 68.7 19 84 C13.39 84 7.78 84 2 84 C2 81.03 2 78.06 2 75 C1.34 75 0.68 75 0 75 C-0.78428443 49.94558036 -1.15870264 25.04580317 0 0 Z " fill="#27ACCA" transform="translate(129,14)"/>
<path d="M0 0 C11.55 0 23.1 0 35 0 C35 1.98 35 3.96 35 6 C36.65 6 38.3 6 40 6 C40 8.97 40 11.94 40 15 C40.66 15 41.32 15 42 15 C42 16.98 42 18.96 42 21 C43.65 21 45.3 21 47 21 C47 36.84 47 52.68 47 69 C44.69 69 42.38 69 40 69 C40 73.95 40 78.9 40 84 C27.46 84 14.92 84 2 84 C2 81.03 2 78.06 2 75 C1.34 75 0.68 75 0 75 C0 73.02 0 71.04 0 69 C-1.65 69 -3.3 69 -5 69 C-5 66.03 -5 63.06 -5 60 C-5.66 60 -6.32 60 -7 60 C-7 45.15 -7 30.3 -7 15 C-5.02 14.67 -3.04 14.34 -1 14 C-1.01160156 13.15695313 -1.02320313 12.31390625 -1.03515625 11.4453125 C-1.04417969 10.34960938 -1.05320313 9.25390625 -1.0625 8.125 C-1.07410156 7.03445312 -1.08570313 5.94390625 -1.09765625 4.8203125 C-1 2 -1 2 0 0 Z " fill="#27ACCA" transform="translate(213,14)"/>
<path d="M0 0 C11.55 0 23.1 0 35 0 C35 1.98 35 3.96 35 6 C36.65 6 38.3 6 40 6 C40 8.97 40 11.94 40 15 C40.66 15 41.32 15 42 15 C42 16.98 42 18.96 42 21 C43.65 21 45.3 21 47 21 C47 36.84 47 52.68 47 69 C44.69 69 42.38 69 40 69 C40 73.95 40 78.9 40 84 C27.46 84 14.92 84 2 84 C2 81.03 2 78.06 2 75 C1.34 75 0.68 75 0 75 C0 73.02 0 71.04 0 69 C-1.65 69 -3.3 69 -5 69 C-5 66.03 -5 63.06 -5 60 C-5.66 60 -6.32 60 -7 60 C-7 45.15 -7 30.3 -7 15 C-5.02 14.67 -3.04 14.34 -1 14 C-1.01160156 13.15695313 -1.02320313 12.31390625 -1.03515625 11.4453125 C-1.04417969 10.34960938 -1.05320312 9.25390625 -1.0625 8.125 C-1.07410156 7.03445312 -1.08570313 5.94390625 -1.09765625 4.8203125 C-1 2 -1 2 0 0 Z " fill="#27ACCA" transform="translate(24,14)"/>
<path d="M0 0 C13.86 0 27.72 0 42 0 C42 1.98 42 3.96 42 6 C43.65 6 45.3 6 47 6 C47 8.97 47 11.94 47 15 C47.66 15 48.32 15 49 15 C49 16.98 49 18.96 49 21 C50.65 21 52.3 21 54 21 C54 26.94 54 32.88 54 39 C51.69 39 49.38 39 47 39 C47 40.98 47 42.96 47 45 C47.66 45 48.32 45 49 45 C49 46.98 49 48.96 49 51 C50.65 51 52.3 51 54 51 C54 61.89 54 72.78 54 84 C48.39 84 42.78 84 37 84 C37 81.03 37 78.06 37 75 C36.01 74.67 35.02 74.34 34 74 C33.89847201 67.2314676 33.96973056 60.69675136 35 54 C29.72 54 24.44 54 19 54 C19 63.9 19 73.8 19 84 C13.39 84 7.78 84 2 84 C2 81.03 2 78.06 2 75 C1.34 75 0.68 75 0 75 C-1.09634536 33.54298329 -1.09634536 33.54298329 -1.125 14.4375 C-1.12951172 13.19210449 -1.13402344 11.94670898 -1.13867188 10.66357422 C-1.13673828 9.53580566 -1.13480469 8.40803711 -1.1328125 7.24609375 C-1.13168457 6.27341553 -1.13055664 5.3007373 -1.12939453 4.29858398 C-1 2 -1 2 0 0 Z " fill="#27ADCB" transform="translate(325,14)"/>
<path d="M0 0 C16.17 0 32.34 0 49 0 C49 1.98 49 3.96 49 6 C50.65 6 52.3 6 54 6 C54 11.94 54 17.88 54 24 C42.45 24 30.9 24 19 24 C19 25.98 19 27.96 19 30 C24.28 30 29.56 30 35 30 C35 31.98 35 33.96 35 36 C36.65 36 38.3 36 40 36 C40 41.94 40 47.88 40 54 C33.07 54 26.14 54 19 54 C19 55.98 19 57.96 19 60 C28.9 59.67 38.8 59.34 49 59 C49 61.31 49 63.62 49 66 C50.65 66 52.3 66 54 66 C54 71.94 54 77.88 54 84 C36.84 84 19.68 84 2 84 C2 81.03 2 78.06 2 75 C1.34 75 0.68 75 0 75 C-0.15368231 65.51661028 -0.30186399 56.03315542 -0.4429636 46.54957008 C-0.50865123 42.14628 -0.57625542 37.74303651 -0.64819336 33.33984375 C-0.71750768 29.09296883 -0.78184808 24.84604537 -0.84269524 20.59904099 C-0.86682801 18.9762535 -0.89277315 17.35349195 -0.92053413 15.73076248 C-0.9590198 13.46329049 -0.99114324 11.19581301 -1.02172852 8.92822266 C-1.04171402 7.63582672 -1.06169952 6.34343079 -1.08229065 5.01187134 C-1 2 -1 2 0 0 Z " fill="#27ADCC" transform="translate(381,14)"/>
<path d="M0 0 C13.86 0 27.72 0 42 0 C42 1.98 42 3.96 42 6 C43.65 6 45.3 6 47 6 C47 11.94 47 17.88 47 24 C35.45 24 23.9 24 12 24 C12 35.88 12 47.76 12 60 C16.455 59.505 16.455 59.505 21 59 C23.52385723 59.0775417 26.04703643 59.21770221 28.5625 59.4375 C29.78066406 59.53933594 30.99882812 59.64117187 32.25390625 59.74609375 C33.16011719 59.82988281 34.06632812 59.91367188 35 60 C35 58.02 35 56.04 35 54 C33.35 54 31.7 54 30 54 C30 51.03 30 48.06 30 45 C29.01 44.67 28.02 44.34 27 44 C26.97305149 42.04174127 26.95362782 40.08337774 26.9375 38.125 C26.92589844 37.03445312 26.91429687 35.94390625 26.90234375 34.8203125 C27 32 27 32 28 30 C32.62 30 37.24 30 42 30 C42 31.98 42 33.96 42 36 C43.65 36 45.3 36 47 36 C47 38.97 47 41.94 47 45 C47.66 45 48.32 45 49 45 C49 46.98 49 48.96 49 51 C50.65 51 52.3 51 54 51 C54 56.94 54 62.88 54 69 C51.69 69 49.38 69 47 69 C47 73.95 47 78.9 47 84 C32.15 84 17.3 84 2 84 C2 81.03 2 78.06 2 75 C1.34 75 0.68 75 0 75 C0 73.02 0 71.04 0 69 C-1.65 69 -3.3 69 -5 69 C-5 66.03 -5 63.06 -5 60 C-5.66 60 -6.32 60 -7 60 C-7 45.15 -7 30.3 -7 15 C-5.02 14.67 -3.04 14.34 -1 14 C-1.01160156 13.15695313 -1.02320313 12.31390625 -1.03515625 11.4453125 C-1.04417969 10.34960938 -1.05320312 9.25390625 -1.0625 8.125 C-1.07410156 7.03445312 -1.08570313 5.94390625 -1.09765625 4.8203125 C-1 2 -1 2 0 0 Z " fill="#27AAC8" transform="translate(269,14)"/>
<path d="M0 0 C13.86 0 27.72 0 42 0 C42 1.98 42 3.96 42 6 C43.65 6 45.3 6 47 6 C47 11.94 47 17.88 47 24 C35.45 24 23.9 24 12 24 C12 25.98 12 27.96 12 30 C19.59 30 27.18 30 35 30 C35 31.98 35 33.96 35 36 C36.65 36 38.3 36 40 36 C40 38.97 40 41.94 40 45 C40.66 45 41.32 45 42 45 C42 46.98 42 48.96 42 51 C43.65 51 45.3 51 47 51 C47 56.94 47 62.88 47 69 C44.69 69 42.38 69 40 69 C40 73.95 40 78.9 40 84 C25.15 84 10.3 84 -5 84 C-5 81.03 -5 78.06 -5 75 C-5.66 75 -6.32 75 -7 75 C-7 70.05 -7 65.1 -7 60 C-1.9866581 59.2838083 1.87816785 58.91660604 6.80859375 59.12109375 C8.66967773 59.19360352 8.66967773 59.19360352 10.56835938 59.26757812 C11.84517578 59.32365234 13.12199219 59.37972656 14.4375 59.4375 C15.74138672 59.48970703 17.04527344 59.54191406 18.38867188 59.59570312 C21.59272447 59.72480415 24.79641946 59.85974595 28 60 C28 58.02 28 56.04 28 54 C19.42 54 10.84 54 2 54 C2 51.03 2 48.06 2 45 C1.34 45 0.68 45 0 45 C0 43.02 0 41.04 0 39 C-1.65 39 -3.3 39 -5 39 C-5 36.03 -5 33.06 -5 30 C-5.66 30 -6.32 30 -7 30 C-7 25.05 -7 20.1 -7 15 C-5.02 14.67 -3.04 14.34 -1 14 C-1.01160156 13.15695313 -1.02320312 12.31390625 -1.03515625 11.4453125 C-1.04417969 10.34960938 -1.05320312 9.25390625 -1.0625 8.125 C-1.07410156 7.03445312 -1.08570312 5.94390625 -1.09765625 4.8203125 C-1 2 -1 2 0 0 Z " fill="#27AAC9" transform="translate(80,14)"/>
<path d="M0 0 C13.86 0 27.72 0 42 0 C42 1.98 42 3.96 42 6 C43.65 6 45.3 6 47 6 C47 8.97 47 11.94 47 15 C47.66 15 48.32 15 49 15 C49 16.98 49 18.96 49 21 C50.65 21 52.3 21 54 21 C54 26.94 54 32.88 54 39 C51.69 39 49.38 39 47 39 C47 43.95 47 48.9 47 54 C37.76 54 28.52 54 19 54 C19 63.9 19 73.8 19 84 C13.39 84 7.78 84 2 84 C2 81.03 2 78.06 2 75 C1.34 75 0.68 75 0 75 C-1.21227652 49.88717593 -0.84807268 25.1241532 0 0 Z " fill="#27ADCC" transform="translate(437,14)"/>
<path d="M0 0 C5.28 0 10.56 0 16 0 C16 11.55 16 23.1 16 35 C11 36 11 36 0 36 C0 24.12 0 12.24 0 0 Z " fill="#19272A" transform="translate(225,38)"/>
<path d="M0 0 C5.28 0 10.56 0 16 0 C16 11.55 16 23.1 16 35 C11 36 11 36 0 36 C0 24.12 0 12.24 0 0 Z " fill="#19272A" transform="translate(36,38)"/>
<path d="M0 0 C0.66 0 1.32 0 2 0 C2 3.96 2 7.92 2 12 C-0.31 12 -2.62 12 -5 12 C-5 16.95 -5 21.9 -5 27 C-14.24 27 -23.48 27 -33 27 C-33 36.9 -33 46.8 -33 57 C-36.63 57 -40.26 57 -44 57 C-44 55.02 -44 53.04 -44 51 C-41.03 51 -38.06 51 -35 51 C-35 41.1 -35 31.2 -35 21 C-25.76 21 -16.52 21 -7 21 C-7 16.05 -7 11.1 -7 6 C-4.69 6 -2.38 6 0 6 C0 4.02 0 2.04 0 0 Z " fill="#181818" transform="translate(486,38)"/>
<path d="M0 0 C0.66 0 1.32 0 2 0 C2 13.86 2 27.72 2 42 C-0.31 42 -2.62 42 -5 42 C-5 46.95 -5 51.9 -5 57 C-15.56 57 -26.12 57 -37 57 C-37 55.02 -37 53.04 -37 51 C-27.1 51 -17.2 51 -7 51 C-7 46.05 -7 41.1 -7 36 C-4.69 36 -2.38 36 0 36 C0 24.12 0 12.24 0 0 Z " fill="#181818" transform="translate(255,38)"/>
<path d="M0 0 C0.66 0 1.32 0 2 0 C2 13.86 2 27.72 2 42 C-0.31 42 -2.62 42 -5 42 C-5 46.95 -5 51.9 -5 57 C-15.56 57 -26.12 57 -37 57 C-37 55.02 -37 53.04 -37 51 C-27.1 51 -17.2 51 -7 51 C-7 46.05 -7 41.1 -7 36 C-4.69 36 -2.38 36 0 36 C0 24.12 0 12.24 0 0 Z " fill="#181818" transform="translate(66,38)"/>
<path d="M0 0 C0.66 0 1.32 0 2 0 C2 3.96 2 7.92 2 12 C-0.31 12 -2.62 12 -5 12 C-5 16.95 -5 21.9 -5 27 C-17.87 27 -30.74 27 -44 27 C-44 25.02 -44 23.04 -44 21 C-31.79 21 -19.58 21 -7 21 C-7 16.05 -7 11.1 -7 6 C-4.69 6 -2.38 6 0 6 C0 4.02 0 2.04 0 0 Z " fill="#181818" transform="translate(318,68)"/>
<path d="M0 0 C0.66 0 1.32 0 2 0 C2 3.96 2 7.92 2 12 C-0.31 12 -2.62 12 -5 12 C-5 16.95 -5 21.9 -5 27 C-17.87 27 -30.74 27 -44 27 C-44 25.02 -44 23.04 -44 21 C-31.79 21 -19.58 21 -7 21 C-7 16.05 -7 11.1 -7 6 C-4.69 6 -2.38 6 0 6 C0 4.02 0 2.04 0 0 Z " fill="#181818" transform="translate(122,68)"/>
<path d="M0 0 C0.66 0 1.32 0 2 0 C2 3.96 2 7.92 2 12 C-9.55 12 -21.1 12 -33 12 C-33 24.87 -33 37.74 -33 51 C-33.66 51 -34.32 51 -35 51 C-35 36.15 -35 21.3 -35 6 C-23.45 6 -11.9 6 0 6 C0 4.02 0 2.04 0 0 Z " fill="#181818" transform="translate(311,23)"/>
<path d="M0 0 C0.66 0 1.32 0 2 0 C2 3.96 2 7.92 2 12 C-13.18 12 -28.36 12 -44 12 C-44 10.02 -44 8.04 -44 6 C-29.48 6 -14.96 6 0 6 C0 4.02 0 2.04 0 0 Z " fill="#181818" transform="translate(430,83)"/>
<path d="M0 0 C0.66 0 1.32 0 2 0 C2 3.96 2 7.92 2 12 C-9.55 12 -21.1 12 -33 12 C-33 14.97 -33 17.94 -33 21 C-33.66 21 -34.32 21 -35 21 C-35 16.05 -35 11.1 -35 6 C-23.45 6 -11.9 6 0 6 C0 4.02 0 2.04 0 0 Z " fill="#181818" transform="translate(430,23)"/>
<path d="M0 0 C0.66 0 1.32 0 2 0 C2 3.96 2 7.92 2 12 C-9.55 12 -21.1 12 -33 12 C-33 14.97 -33 17.94 -33 21 C-33.66 21 -34.32 21 -35 21 C-35 16.05 -35 11.1 -35 6 C-23.45 6 -11.9 6 0 6 C0 4.02 0 2.04 0 0 Z " fill="#181818" transform="translate(122,23)"/>
<path d="M0 0 C6.93 0 13.86 0 21 0 C21 1.98 21 3.96 21 6 C14.73 6 8.46 6 2 6 C2 15.9 2 25.8 2 36 C-1.63 36 -5.26 36 -9 36 C-9 34.02 -9 32.04 -9 30 C-6.03 30 -3.06 30 0 30 C0 20.1 0 10.2 0 0 Z " fill="#181818" transform="translate(339,59)"/>
<path d="M0 0 C6.93 0 13.86 0 21 0 C21 1.98 21 3.96 21 6 C14.73 6 8.46 6 2 6 C2 18.87 2 31.74 2 45 C1.34 45 0.68 45 0 45 C0 30.15 0 15.3 0 0 Z " fill="#181818" transform="translate(220,29)"/>
<path d="M0 0 C6.93 0 13.86 0 21 0 C21 1.98 21 3.96 21 6 C14.73 6 8.46 6 2 6 C2 18.87 2 31.74 2 45 C1.34 45 0.68 45 0 45 C0 30.15 0 15.3 0 0 Z " fill="#181818" transform="translate(31,29)"/>
<path d="M0 0 C2.31 0 4.62 0 7 0 C7 1.98 7 3.96 7 6 C5.35 6 3.7 6 2 6 C2 10.95 2 15.9 2 21 C-0.31 21 -2.62 21 -5 21 C-5 25.95 -5 30.9 -5 36 C-8.63 36 -12.26 36 -16 36 C-16 34.02 -16 32.04 -16 30 C-13.03 30 -10.06 30 -7 30 C-7 25.05 -7 20.1 -7 15 C-4.69 15 -2.38 15 0 15 C0 10.05 0 5.1 0 0 Z " fill="#181818" transform="translate(178,44)"/>
<path d="M0 0 C0.66 0 1.32 0 2 0 C2 23.76 2 47.52 2 72 C-1.63 72 -5.26 72 -9 72 C-9 70.02 -9 68.04 -9 66 C-6.03 66 -3.06 66 0 66 C0 44.22 0 22.44 0 0 Z " fill="#181818" transform="translate(199,23)"/>
<path d="M0 0 C2.31 0 4.62 0 7 0 C7 1.98 7 3.96 7 6 C5.35 6 3.7 6 2 6 C2 20.85 2 35.7 2 51 C-1.63 51 -5.26 51 -9 51 C-9 49.02 -9 47.04 -9 45 C-6.03 45 -3.06 45 0 45 C0 30.15 0 15.3 0 0 Z " fill="#181818" transform="translate(143,44)"/>
<path d="M0 0 C0.66 0 1.32 0 2 0 C2 3.96 2 7.92 2 12 C-4.93 12 -11.86 12 -19 12 C-19 14.97 -19 17.94 -19 21 C-19.66 21 -20.32 21 -21 21 C-21 16.05 -21 11.1 -21 6 C-14.07 6 -7.14 6 0 6 C0 4.02 0 2.04 0 0 Z " fill="#181818" transform="translate(416,53)"/>
<path d="M0 0 C6.93 0 13.86 0 21 0 C21 1.98 21 3.96 21 6 C14.73 6 8.46 6 2 6 C2 8.97 2 11.94 2 15 C1.34 15 0.68 15 0 15 C0 10.05 0 5.1 0 0 Z " fill="#181818" transform="translate(451,29)"/>
<path d="M0 0 C6.93 0 13.86 0 21 0 C21 1.98 21 3.96 21 6 C14.73 6 8.46 6 2 6 C2 8.97 2 11.94 2 15 C1.34 15 0.68 15 0 15 C0 10.05 0 5.1 0 0 Z " fill="#181818" transform="translate(339,29)"/>
<path d="M0 0 C7.59 0 15.18 0 23 0 C23 1.98 23 3.96 23 6 C15.41 6 7.82 6 0 6 C0 4.02 0 2.04 0 0 Z " fill="#181818" transform="translate(85,59)"/>
<path d="M0 0 C0.66 0 1.32 0 2 0 C2 8.91 2 17.82 2 27 C-1.63 27 -5.26 27 -9 27 C-9 25.02 -9 23.04 -9 21 C-6.03 21 -3.06 21 0 21 C0 14.07 0 7.14 0 0 Z " fill="#181818" transform="translate(374,68)"/>
<path d="M0 0 C5.28 0 10.56 0 16 0 C16 1.98 16 3.96 16 6 C10.72 6 5.44 6 0 6 C0 4.02 0 2.04 0 0 Z " fill="#181818" transform="translate(456,38)"/>
<path d="M0 0 C5.28 0 10.56 0 16 0 C16 1.98 16 3.96 16 6 C10.72 6 5.44 6 0 6 C0 4.02 0 2.04 0 0 Z " fill="#181818" transform="translate(344,38)"/>
<path d="M0 0 C0.66 0 1.32 0 2 0 C2 3.96 2 7.92 2 12 C-0.31 12 -2.62 12 -5 12 C-5 14.97 -5 17.94 -5 21 C-5.66 21 -6.32 21 -7 21 C-7 16.05 -7 11.1 -7 6 C-4.69 6 -2.38 6 0 6 C0 4.02 0 2.04 0 0 Z " fill="#181818" transform="translate(374,38)"/>
</svg>
